<svg aria-hidden="true" style="position: absolute; width: 0; height: 0; overflow: hidden;" version="1.1" xmlns="http://www.w3.org/2000/svg" xmlns:xlink="http://www.w3.org/1999/xlink">
<defs>
<symbol id="arrow-left" viewBox="0 0 32 32">
<path d="M32 28c0 2.209-1.791 4-4 4v0h-24c-2.209 0-4-1.791-4-4v0-24c0-2.209 1.791-4 4-4v0h24c2.209 0 4 1.791 4 4v0 24zM23 15h-11.586l4.294-4.292c0.181-0.181 0.293-0.431 0.293-0.708 0-0.553-0.448-1.001-1.001-1.001-0.277 0-0.527 0.112-0.708 0.293v0l-6 6c-0.181 0.181-0.294 0.431-0.294 0.708s0.112 0.527 0.294 0.708l6 6c0.181 0.181 0.431 0.293 0.708 0.293 0.553 0 1.001-0.448 1.001-1.001 0-0.276-0.112-0.527-0.293-0.708v0l-4.294-4.292h11.586c0.552 0 1-0.448 1-1s-0.448-1-1-1v0z"></path>
</symbol>
<symbol id="arrow-right" viewBox="0 0 32 32">
<path d="M0 28c0 2.209 1.791 4 4 4v0h24c2.209 0 4-1.791 4-4v0-24c0-2.209-1.791-4-4-4v0h-24c-2.209 0-4 1.791-4 4v0 24zM9 15h11.586l-4.294-4.292c-0.181-0.181-0.293-0.431-0.293-0.708 0-0.553 0.448-1.001 1.001-1.001 0.276 0 0.527 0.112 0.708 0.293v0l6 6c0.181 0.181 0.294 0.431 0.294 0.708s-0.112 0.527-0.294 0.708l-6 6c-0.181 0.181-0.431 0.293-0.708 0.293-0.553 0-1.001-0.448-1.001-1.001 0-0.276 0.112-0.527 0.293-0.708v0l4.294-4.292h-11.586c-0.552 0-1-0.448-1-1s0.448-1 1-1v0z"></path>
</symbol>
<symbol id="checkbox" viewBox="0 0 32 32">
<path d="M30.798 3.181l-2.664-2.664-13.17 13.244-5.253-5.253-2.664 2.664 7.917 7.917z" fill="#48eb00"></path>
<path d="M23.843 14.65v7.991h-19.681v-19.681h17.092l2.959-2.959h-23.010v25.6h25.6v-13.91z"></path>
</symbol>
</defs>
</svg>
